<?xml version="1.0" encoding="UTF-8"?>
<svg id="_レイヤー_2" data-name="レイヤー_2" xmlns="http://www.w3.org/2000/svg" viewBox="0 0 184.65 45.54">
  <defs>
    <style>
      .cls-1 {
        fill: #751b51;
      }
    </style>
  </defs>
  <g id="_レイヤー_1-2" data-name="レイヤー_1">
    <g>
      <path class="cls-1" d="M1.85,29.55c1.5-2.45,2.6-4.65,3.45-6.8,1-2.5,1.7-5.05,2.1-7.7h-3.35l-2.1,2.1v-7.1h5.8V0h8.4l-3.4,3.4v6.65h2.85v5h-2.85v1.2l5.5,5.5-4.8,4.8v-2.95l-.7-.7v22.1h-7.1l2.1-2.1v-13.8c-.9,1.75-1.95,3.45-3.05,5.15L0,29.55h1.85ZM38.55,41.6h-17.9v-12.2h-2.6l-2.1,2.1v-7.1h4.7v-11c-.35.35-.75.75-1.15,1.1l-.1.1-3.65-3.65c.85-.6,1.6-1.45,2.25-2.5,1-1.65,1.6-3.75,1.6-5.7V0h8.45l-3.4,3.35c0,.5-.05.95-.1,1.45h22.4v7.1l-2.1-2.1h-21.8c-.2.45-.45.9-.7,1.3-.25.45-.55.8-.8,1.2h22.1v12.1h3.3v5h-3.3v7.1h1.2l2.1-2.1v7.1h-3.3v3.5h-8.5l3.4-3.4ZM29.6,24.4v-7.1h-2.83v7.1h2.83ZM29.6,36.5v-7.1h-2.83v7.1h2.83ZM37.61,36.5v-7.1h-2.91v4.45l-1.59,2.65h4.5ZM37.61,24.4v-7.1h-2.91v7.1h2.91Z"/>
      <path class="cls-1" d="M112.78,21.55c2.25-3.55,2.5-8.55,2.5-13.2v-2.65h8.79l-3.59,1.8c2.12,5.02-.13,16.18-4.9,19l-4.9-4.95h2.1Z"/>
      <path class="cls-1" d="M113.83,39.9h2.9c4.1,0,8-1.7,10.95-4.75,3.2-3.35,3.98-7.95,4.73-12.55h4.98c-3.33-3.42-4.37-9.2-2.3-15l-4.22-1.9h9.42v2.65c0,4.5.2,10.15,2.85,13.8h2.65l-5.1,5.05c-.85-.8-1.65-1.75-2.3-2.8-.95,5.2-.65,11.29-4.6,15.39-3.4,3.55-10.05,4.76-14.8,5.26l-5.15-5.15Z"/>
      <path class="cls-1" d="M111.13,30.75c-.89,4.73-2.45,11.73-11.74,14.79l-6.48-3.32,2.76-.89c3.9-1.26,7.09-4.07,8.96-7.88,2.02-4.17,1.52-13.68,1.52-13.68h5.4s.46,6.26-.43,10.98Z"/>
      <polygon class="cls-1" points="124.07 25.6 124.07 0 134.58 0 131.18 3.4 131.18 29 119.51 29 124.07 25.6"/>
      <path class="cls-1" d="M50.59,22.22l.58-11.18-.02-6.46,5.72.24,5.46.02,6.52-.22-.84,6.46-.07,5.88.27,5.1c-4.54-.52-13.17-.56-17.62.15Z"/>
      <path class="cls-1" d="M71.65,22.22l.58-11.18-.02-6.46,5.72.24,5.46.02,8.53-.22-2.85,6.46-.07,5.88.27,5.1c-4.54-.52-13.17-.56-17.62.15Z"/>
      <path class="cls-1" d="M98.72,10.87l.29-5.53v-3.2s2.82.12,2.82.12h2.7s5.16-.1,5.16-.1l-2.34,3.2-.03,2.91.13,2.53c-2.25-.26-6.52-.28-8.72.07Z"/>
      <path class="cls-1" d="M153.91,24.5v-6.5h28.84V1.5h-36.8v8.4l3.4-3.4h24.83v6.5h-28.4v16.5h30.5c0,8.3-1.13,10.5-9.33,10.5h-8.64c-.15-1.13-.14-3.13-.02-4.21l-1.26.07-1.46-.02-1.6-1.17.06,2.58v1.35s-.07,1.4-.07,1.4h-.02l5,5h8c11.15,0,17.7-4.65,17.7-15.45v-5.05h-30.74Z"/>
      <path class="cls-1" d="M93.78,23.19l.35-6.76v-3.91s3.45.15,3.45.15h3.3s6.3-.12,6.3-.12l-2.86,3.91-.04,3.56.16,3.09c-2.75-.31-7.97-.34-10.66.09Z"/>
      <path class="cls-1" d="M68.21,25.38l-.58,11.18.02,6.46-5.72-.24-5.46-.02-5.35.22-.33-6.46.07-5.88-.27-5.1c4.54.52,13.17.56,17.62-.15Z"/>
      <path class="cls-1" d="M89.27,25.53l-.27,5.1.07,5.88-.33,6.46-5.35-.22-5.46.02-5.72.24.02-6.46-.58-11.18c4.45.71,13.08.67,17.62.15Z"/>
    </g>
  </g>
</svg>